<?xml version="1.0" encoding="utf-8"?>
<!-- Generator: Adobe Illustrator 26.0.3, SVG Export Plug-In . SVG Version: 6.00 Build 0)  -->
<svg version="1.1" id="Layer_1" xmlns="http://www.w3.org/2000/svg" xmlns:xlink="http://www.w3.org/1999/xlink" x="0px" y="0px"
	 viewBox="0 0 448 512" style="enable-background:new 0 0 448 512;" xml:space="preserve">
<style type="text/css">
	.st0{fill:#C4B794;}
</style>
<path class="st0" d="M133,191c0-7.2,5.8-13,13-13h156c7.2,0,13,5.8,13,13s-5.8,13-13,13H146C138.8,204,133,198.2,133,191z M133,256
	c0-7.2,5.8-13,13-13h156c7.2,0,13,5.8,13,13c0,7.2-5.8,13-13,13H146C138.8,269,133,263.2,133,256z M302,334H146c-7.2,0-13-5.8-13-13
	s5.8-13,13-13h156c7.2,0,13,5.8,13,13S309.2,334,302,334z"/>
</svg>
